<?xml version="1.0" standalone="no"?>
<!DOCTYPE svg PUBLIC "-//W3C//DTD SVG 20010904//EN"
 "http://www.w3.org/TR/2001/REC-SVG-20010904/DTD/svg10.dtd">
<svg version="1.0" xmlns="http://www.w3.org/2000/svg"
 width="700.000000pt" height="700.000000pt" viewBox="0 0 700.000000 700.000000"
 preserveAspectRatio="xMidYMid meet">
<metadata>
Created by potrace 1.11, written by Peter Selinger 2001-2013
</metadata>
<g transform="translate(0.000000,700.000000) scale(0.100000,-0.100000)"
fill="#000000" stroke="none">
<path d="M5928 6986 c-90 -24 -164 -87 -207 -176 -24 -51 -26 -67 -29 -207
l-4 -153 -546 -1 c-301 0 -1288 -2 -2194 -4 l-1648 -3 -1 112 c-1 152 -6 192
-35 253 -64 134 -229 209 -372 168 -92 -27 -160 -84 -205 -172 -24 -46 -30
-93 -31 -235 l-1 -128 -85 -1 c-47 0 -96 -3 -110 -5 -14 -3 -33 -6 -42 -7 -10
-2 -21 -6 -24 -10 -4 -4 -14 -7 -22 -7 -37 0 -154 -71 -213 -129 -50 -49 -102
-134 -130 -211 l-24 -65 2 -2480 c1 -1866 5 -2496 14 -2545 38 -209 215 -384
429 -426 19 -4 322 -8 673 -8 706 -1 692 -2 722 60 9 19 13 39 10 44 -3 6 -3
11 2 11 28 4 326 3 333 -1 5 -3 23 -23 40 -45 137 -174 336 -334 546 -439 238
-119 478 -174 747 -170 152 2 181 5 324 34 350 72 676 270 914 555 l58 70 165
0 c91 0 166 -3 166 -7 0 -17 2 -24 18 -51 33 -56 16 -54 707 -52 352 1 658 5
680 9 210 40 391 215 434 421 9 43 9 1941 1 4635 l-1 375 -27 80 c-33 97 -87
180 -155 240 -44 39 -77 58 -178 106 -9 4 -34 11 -55 15 -22 5 -42 9 -46 10
-5 1 -50 2 -101 3 l-94 1 -1 134 c-1 187 -17 240 -94 316 -80 80 -205 114
-310 86z"/>
</g>
</svg>
