<?xml version="1.0" standalone="no"?>
<!DOCTYPE svg PUBLIC "-//W3C//DTD SVG 20010904//EN"
 "http://www.w3.org/TR/2001/REC-SVG-20010904/DTD/svg10.dtd">
<svg version="1.0" xmlns="http://www.w3.org/2000/svg"
 width="1127.000000pt" height="1280.000000pt" viewBox="0 0 1127.000000 1280.000000"
 preserveAspectRatio="xMidYMid meet">
<metadata>
Created by potrace 1.15, written by Peter Selinger 2001-2017
</metadata>
<g transform="translate(0.000000,1280.000000) scale(0.100000,-0.100000)"
fill="#ff5722" stroke="none">
<path d="M5055 12793 c-340 -27 -572 -91 -880 -246 -207 -103 -305 -179 -351
-269 -43 -85 -37 -85 139 6 315 164 622 284 867 338 97 21 128 23 400 23 308
-1 368 -6 740 -61 275 -41 739 -122 845 -148 55 -13 101 -23 103 -21 7 7 -305
154 -391 185 -285 102 -613 165 -1002 190 -148 9 -375 11 -470 3z"/>
<path d="M8030 12669 c-267 -19 -477 -92 -707 -247 -304 -204 -487 -406 -598
-656 l-26 -58 39 33 c22 19 77 68 123 110 368 333 770 552 1160 631 159 32
445 32 560 0 219 -60 428 -234 597 -497 137 -213 190 -446 163 -720 -25 -260
-104 -439 -266 -602 -93 -93 -68 -79 72 41 260 223 405 464 420 696 13 201
-87 512 -234 731 -201 300 -609 514 -1023 535 -52 2 -115 6 -140 7 -25 2 -88
0 -140 -4z"/>
<path d="M2630 12643 c-14 -2 -86 -18 -160 -35 -319 -71 -558 -197 -760 -398
-160 -159 -271 -337 -321 -515 -42 -150 -42 -374 1 -585 79 -389 226 -665 460
-867 47 -40 88 -73 91 -73 4 0 -15 41 -43 92 -28 50 -79 152 -113 227 -153
333 -223 568 -245 814 -24 280 49 470 264 683 202 200 423 315 738 383 289 62
488 45 768 -66 153 -61 500 -229 586 -284 90 -59 94 -61 94 -56 0 10 -323 248
-465 342 -261 174 -477 286 -631 325 -72 19 -196 25 -264 13z"/>
<path d="M4120 11860 c19 -17 53 -45 75 -62 l40 -30 -35 32 c-19 17 -53 45
-75 62 l-40 30 35 -32z"/>
<path d="M7510 11660 c-174 -11 -502 -39 -507 -44 -2 -2 155 -6 349 -9 616
-10 968 -69 1082 -183 42 -43 53 -70 77 -195 34 -179 18 -369 -54 -617 -13
-45 -21 -79 -17 -77 11 7 113 162 148 225 39 70 69 146 93 235 24 88 37 360
20 421 -48 174 -260 241 -796 249 -137 2 -315 0 -395 -5z"/>
<path d="M2490 11647 c-180 -42 -228 -132 -247 -456 -9 -164 30 -333 118 -516
39 -79 39 -80 34 -35 -14 129 -17 314 -6 406 12 96 63 268 102 345 24 49 67
83 136 110 51 20 82 23 256 27 267 6 546 -22 933 -93 146 -27 197 -29 99 -3
-648 169 -901 216 -1195 223 -122 3 -192 1 -230 -8z"/>
<path d="M3988 11403 c7 -3 16 -2 19 1 4 3 -2 6 -13 5 -11 0 -14 -3 -6 -6z"/>
<path d="M7590 10860 c22 -41 130 -146 181 -177 75 -45 156 -64 269 -63 82 0
164 10 175 22 2 2 -112 46 -253 97 -141 52 -285 105 -320 118 -61 22 -62 22
-52 3z"/>
<path d="M2945 10720 c-214 -38 -313 -60 -300 -65 87 -35 119 -44 184 -55 162
-27 327 27 440 144 29 30 32 36 15 35 -10 -1 -163 -27 -339 -59z"/>
<path d="M8771 10320 c-1 -3 8 -48 20 -100 41 -193 36 -549 -12 -829 -47 -275
-145 -653 -215 -835 -116 -298 -388 -772 -623 -1083 -179 -238 -429 -453 -646
-554 -36 -17 -64 -33 -62 -35 8 -8 235 59 325 96 326 136 639 414 836 740 148
246 330 678 409 970 85 312 123 670 114 1072 -5 251 -14 316 -56 429 -17 45
-89 148 -90 129z"/>
<path d="M1912 9897 c-37 -342 -38 -573 -7 -864 31 -280 77 -423 241 -753 117
-233 207 -381 311 -510 186 -231 494 -446 865 -606 105 -45 350 -136 355 -131
1 2 -21 16 -49 32 -174 93 -435 286 -601 445 -273 261 -462 533 -653 944 -233
498 -383 1005 -433 1455 -6 51 -12 95 -14 97 -2 2 -9 -47 -15 -109z"/>
<path d="M4125 9949 c-154 -20 -267 -72 -390 -182 -149 -133 -321 -388 -379
-560 -83 -249 3 -488 256 -709 37 -32 68 -58 71 -58 3 0 -6 36 -18 80 -46 156
-67 282 -72 425 -6 171 9 254 67 372 53 108 118 167 265 238 236 116 508 154
636 90 87 -44 175 -162 219 -295 46 -137 77 -374 83 -640 l2 -95 13 80 c73
439 61 763 -38 969 -79 167 -238 259 -495 286 -102 11 -123 11 -220 -1z"/>
<path d="M6615 9874 c-146 -30 -258 -80 -322 -143 -52 -53 -108 -159 -135
-258 -16 -61 -22 -118 -25 -263 -5 -183 5 -307 41 -515 l12 -70 7 185 c8 210
17 290 48 417 44 181 125 310 226 359 54 27 65 29 178 28 150 -1 274 -32 421
-104 193 -94 277 -204 311 -405 24 -147 3 -345 -58 -558 -11 -38 -19 -73 -16
-80 7 -22 212 194 252 266 129 233 100 435 -108 742 -34 49 -109 138 -167 196
-119 120 -199 167 -328 194 -67 14 -284 19 -337 9z"/>
<path d="M4273 9178 c-58 -12 -141 -89 -177 -163 -30 -61 -56 -167 -56 -229
-1 -171 83 -340 194 -392 124 -58 246 -2 321 147 91 179 60 439 -67 568 -64
64 -135 87 -215 69z"/>
<path d="M6636 9150 c-104 -33 -187 -158 -205 -309 -23 -185 50 -365 171 -425
88 -44 162 -31 235 42 59 58 89 119 110 219 37 182 -39 392 -167 458 -38 20
-107 27 -144 15z"/>
<path d="M1763 8106 c-15 -19 -76 -86 -135 -150 -742 -804 -1256 -1651 -1477
-2434 -87 -308 -124 -524 -143 -840 -19 -324 11 -659 87 -957 57 -224 139
-315 332 -366 148 -40 427 -27 723 31 177 35 657 166 646 177 -2 2 -59 -8
-127 -21 -264 -53 -529 -75 -706 -57 -392 40 -595 200 -665 526 -19 88 -22
131 -22 350 0 183 4 288 18 390 49 388 144 770 281 1130 228 601 635 1363
1115 2085 53 80 100 151 104 158 14 23 -2 12 -31 -22z"/>
<path d="M5290 8134 c-229 -42 -337 -78 -745 -241 -335 -134 -470 -195 -531
-238 l-39 -27 85 7 c127 10 275 32 470 71 153 30 199 44 360 110 388 158 473
179 695 171 220 -8 457 -56 742 -148 159 -51 424 -155 562 -220 57 -27 106
-47 109 -45 6 7 -358 183 -517 251 -256 109 -656 249 -821 286 -82 19 -314 33
-370 23z"/>
<path d="M9170 7922 c398 -201 726 -463 985 -787 120 -150 187 -257 285 -454
180 -362 266 -624 491 -1499 125 -487 89 -706 -134 -815 -170 -84 -334 -112
-642 -111 -294 1 -573 35 -985 118 -63 13 -116 22 -118 21 -1 -1 62 -32 140
-70 352 -167 664 -269 950 -310 317 -45 645 22 848 174 72 54 171 170 214 251
103 195 87 412 -79 1055 -140 547 -318 1047 -477 1345 -175 326 -426 602 -741
813 -125 83 -346 193 -487 242 -108 37 -358 105 -388 105 -9 0 53 -35 138 -78z"/>
<path d="M6017 7489 c-92 -4 -230 -15 -305 -23 -75 -9 -200 -20 -277 -26 -248
-20 -311 -46 -291 -124 9 -36 83 -129 210 -265 135 -144 175 -201 207 -296 18
-54 24 -92 24 -165 0 -52 -3 -108 -8 -125 -14 -57 63 111 94 205 24 73 33 118
36 195 5 121 -3 138 -103 217 -108 86 -164 140 -164 158 0 26 38 55 120 94
119 56 271 91 675 154 l60 9 -55 0 c-30 0 -131 -4 -223 -8z"/>
<path d="M6932 7105 c-28 -110 -103 -269 -165 -351 -25 -33 -81 -94 -124 -135
-280 -267 -571 -359 -1138 -359 -184 0 -535 21 -610 36 -108 22 118 -59 280
-101 210 -54 332 -69 570 -70 281 0 497 28 683 91 190 63 311 183 423 418 26
55 57 134 68 174 25 90 43 247 39 327 l-3 60 -23 -90z"/>
<path d="M2961 6593 c-51 -59 -118 -195 -166 -332 -95 -277 -199 -808 -265
-1351 -11 -91 -23 -183 -26 -205 -4 -22 -4 -38 -1 -35 7 7 103 304 180 560
128 423 221 788 272 1068 24 131 54 342 49 342 -1 0 -21 -21 -43 -47z"/>
<path d="M7750 6415 c0 -40 50 -238 93 -367 104 -310 261 -619 491 -968 108
-163 296 -427 296 -415 0 33 -204 563 -303 785 -173 389 -379 745 -552 955
-21 26 -24 27 -25 10z"/>
<path d="M6498 5996 c-21 -8 -48 -20 -61 -29 -51 -33 -107 -181 -107 -283 0
-93 63 -255 156 -401 39 -62 164 -233 170 -233 2 0 -13 37 -33 83 -20 45 -68
174 -106 287 -59 171 -71 218 -75 286 -4 75 -2 86 24 133 49 91 112 110 235
70 85 -28 97 -35 147 -82 l42 -41 -15 45 c-19 56 -81 120 -148 154 -40 20 -66
25 -121 25 -39 -1 -88 -7 -108 -14z"/>
<path d="M7068 5758 c-21 -12 -38 -25 -38 -29 0 -4 19 -10 43 -14 71 -12 191
-63 225 -96 44 -44 44 -93 -3 -187 -50 -99 -164 -202 -395 -356 -46 -31 -81
-56 -77 -56 11 0 157 74 262 133 194 109 343 226 371 294 22 52 17 104 -16
171 -40 79 -84 116 -166 142 -87 26 -158 26 -206 -2z"/>
<path d="M3270 4179 c-284 -23 -526 -105 -745 -252 -115 -78 -328 -291 -415
-414 -353 -505 -462 -1119 -329 -1858 73 -401 208 -711 394 -899 249 -253 755
-487 1265 -585 412 -79 846 -26 1233 151 91 41 132 66 92 55 -29 -9 -271 -35
-419 -47 -189 -15 -513 -12 -676 5 -536 57 -955 243 -1260 561 -169 176 -260
331 -344 584 -192 580 -159 1247 86 1734 127 254 321 445 583 575 324 160 686
247 1175 281 80 5 183 10 230 11 l85 1 -80 19 c-137 32 -374 68 -520 79 -157
11 -204 11 -355 -1z"/>
<path d="M8110 4120 c-234 -21 -536 -94 -700 -169 l-45 -21 40 5 c299 39 723
56 940 36 345 -30 546 -106 717 -269 79 -76 246 -286 330 -417 208 -322 279
-632 265 -1160 -9 -339 -44 -579 -114 -778 -169 -487 -544 -840 -1151 -1083
-292 -118 -522 -166 -802 -168 -96 0 -209 2 -250 6 l-75 7 50 -14 c98 -28 410
-75 577 -87 444 -31 794 55 1128 278 263 175 466 423 631 769 121 255 159 433
180 841 15 289 6 820 -16 969 -63 425 -271 835 -516 1019 -105 79 -290 155
-464 191 -203 41 -534 62 -725 45z"/>
<path d="M6680 3693 c-230 -176 -390 -458 -476 -843 -14 -63 -26 -116 -27
-116 -4 -4 -507 23 -510 27 -2 2 -28 46 -57 98 -60 105 -163 221 -240 271 -48
31 -149 74 -156 67 -2 -1 13 -25 32 -53 165 -231 282 -557 338 -944 43 -295
45 -761 6 -1154 -10 -110 -18 -201 -16 -203 4 -4 86 211 123 324 43 135 77
269 105 418 29 162 32 516 4 670 -20 113 -58 269 -80 333 l-15 42 224 0 c208
0 225 -1 225 -17 0 -10 -7 -79 -15 -153 -19 -180 -20 -555 0 -702 46 -353 173
-643 387 -890 28 -32 53 -57 54 -55 2 2 -14 57 -37 123 -114 337 -196 706
-245 1093 -22 183 -16 462 15 611 63 304 166 591 337 934 41 82 73 150 72 151
-2 2 -23 -13 -48 -32z"/>
<path d="M4191 3255 c-137 -39 -302 -129 -378 -207 -50 -52 -89 -126 -98 -190
-4 -27 -5 -48 -3 -48 3 0 65 29 139 64 132 63 247 105 343 126 75 16 189 14
225 -4 83 -44 164 -232 186 -438 19 -173 -66 -619 -206 -1087 -27 -90 -48
-165 -46 -167 2 -2 17 29 34 69 17 39 61 142 98 227 188 438 307 810 345 1076
7 45 10 124 9 176 -4 82 -8 102 -37 160 -51 104 -132 163 -307 223 -99 34
-223 42 -304 20z"/>
<path d="M7350 3234 c-165 -25 -262 -66 -330 -140 -55 -59 -119 -186 -157
-309 -25 -83 -27 -104 -27 -260 l0 -170 38 -114 c75 -225 181 -432 354 -696
81 -123 314 -439 332 -450 4 -3 -17 49 -47 116 -79 175 -161 385 -246 629
-206 593 -233 724 -187 905 11 43 32 99 47 124 37 63 110 139 157 163 88 45
235 30 421 -43 167 -65 253 -126 332 -234 21 -29 22 -29 17 -5 -42 191 -156
331 -349 429 -106 53 -234 73 -355 55z"/>
<path d="M2928 2840 c-129 -16 -230 -59 -324 -142 -89 -77 -150 -153 -192
-237 -35 -71 -37 -80 -36 -165 3 -216 142 -494 322 -644 171 -142 496 -291
865 -396 133 -39 494 -126 515 -126 4 0 -101 56 -233 124 -255 130 -348 183
-675 384 -258 157 -351 224 -427 306 -140 149 -190 365 -118 512 43 88 169
166 381 234 145 47 264 52 380 14 29 -9 -32 42 -92 76 -89 52 -233 75 -366 60z"/>
<path d="M8508 2715 c-41 -15 -117 -65 -137 -89 -14 -16 -17 -15 129 -51 261
-65 466 -170 515 -266 49 -94 -15 -305 -146 -478 -131 -175 -473 -451 -880
-712 -64 -40 -115 -75 -114 -77 6 -7 524 259 679 348 404 232 676 452 750 609
41 89 43 193 3 290 -38 93 -116 219 -167 270 -53 52 -171 111 -285 142 -103
27 -293 35 -347 14z"/>
</g>
</svg>
