<?xml version="1.0" encoding="iso-8859-1"?>
<!-- Generator: Adobe Illustrator 19.0.0, SVG Export Plug-In . SVG Version: 6.00 Build 0)  -->
<svg version="1.1" id="Capa_1" xmlns="http://www.w3.org/2000/svg" xmlns:xlink="http://www.w3.org/1999/xlink" x="0px" y="0px"
	 viewBox="0 0 512.002 512.002" style="enable-background:new 0 0 512.002 512.002;" xml:space="preserve">
<g>
	<rect x="96.965" y="359.324" style="fill:#414B82;" width="37.217" height="133.779"/>
	<rect x="176.911" y="359.304" style="fill:#414B82;" width="37.217" height="133.779"/>
</g>
<g>
	<path style="fill:#C8D2DC;" d="M152.766,511.242c-0.499-20.12-16.953-36.28-37.193-36.28s-36.695,16.16-37.193,36.28H152.766z"/>
	<path style="fill:#C8D2DC;" d="M232.709,511.225c-0.499-20.12-16.953-36.28-37.193-36.28s-36.695,16.16-37.193,36.28H232.709z"/>
</g>
<g>
	<rect x="133.287" y="148.677" style="fill:#414B82;" width="44.258" height="61.005"/>
	<circle style="fill:#414B82;" cx="102.175" cy="136.707" r="18.519"/>
	<circle style="fill:#414B82;" cx="208.917" cy="136.707" r="18.519"/>
</g>
<rect x="147.872" y="60.584" style="fill:#91CDFF;" width="15.088" height="53.311"/>
<path style="fill:#FFB69E;" d="M325.834,220.711c-1.824,0-3.654-0.265-5.431-0.798l-78.511-23.566
	c-9.994-2.999-15.663-13.534-12.664-23.528c3-9.993,13.536-15.662,23.527-12.664l71.282,21.397l68.511-34.668
	c9.311-4.711,20.677-0.983,25.389,8.328c4.711,9.31,0.983,20.677-8.328,25.389l-75.245,38.076
	C331.699,220.026,328.773,220.711,325.834,220.711z"/>
<path style="fill:#64AFFF;" d="M417.938,155.211c-4.711-9.309-16.077-13.038-25.389-8.328l-58.84,29.774l14.081,35.224l61.82-31.282
	C418.921,175.889,422.649,164.521,417.938,155.211z"/>
<path style="fill:#5F6E9B;" d="M432.443,511.409c-0.012,0-0.022,0-0.034,0c-13.043-0.019-23.602-10.607-23.582-23.651l0.259-181.852
	c0.019-13.031,10.589-23.582,23.617-23.582c0.012,0,0.022,0,0.034,0c13.043,0.019,23.602,10.607,23.582,23.651l-0.26,181.851
	C456.04,500.858,445.469,511.409,432.443,511.409z"/>
<path style="fill:#414B82;" d="M361.052,511.412c-11.821,0-22.026-8.859-23.428-20.886l-13.29-114.043
	c-0.427-3.672,0.012-7.395,1.286-10.866l32.88-89.644c4.491-12.244,18.058-18.533,30.305-14.04
	c12.245,4.491,18.531,18.059,14.04,30.305l-30.943,84.365l12.64,108.457c1.51,12.955-7.769,24.682-20.725,26.192
	C362.886,511.359,361.964,511.412,361.052,511.412z"/>
<path style="fill:#78BEFF;" d="M347.79,305.941h108.574V158.7c0-15.849-12.849-28.698-28.698-28.698h-51.177
	c-15.849,0-28.698,12.849-28.698,28.698V305.941z"/>
<circle style="fill:#FFB69E;" cx="399.93" cy="73.157" r="42.477"/>
<path style="fill:#FFB69E;" d="M414.13,174.839c-9.117,0-17.143-6.616-18.632-15.906c-1.652-10.303,5.362-19.993,15.665-21.645
	l54.233-8.693l-28.884-61.863c-4.415-9.455-0.329-20.698,9.126-25.112c9.453-4.415,20.698-0.329,25.112,9.126l39.477,84.55
	c2.508,5.37,2.35,11.607-0.427,16.843c-2.777,5.237-7.85,8.867-13.703,9.805l-78.954,12.656
	C416.13,174.76,415.124,174.839,414.13,174.839z"/>
<path style="fill:#64AFFF;" d="M457.495,129.86l-46.333,7.426c-10.303,1.652-17.317,11.342-15.665,21.645
	c1.489,9.29,9.514,15.907,18.632,15.906c0.994,0,2.001-0.078,3.014-0.241l47.113-7.552L457.495,129.86z"/>
<g>
	<path style="fill:#919196;" d="M235.007,364.58c0,6.54-5.302,11.843-11.843,11.843H87.924c-6.54,0-11.843-5.302-11.843-11.843
		V212.417c0-6.54,5.302-11.843,11.843-11.843h135.24c6.54,0,11.843,5.302,11.843,11.843V364.58z"/>
	<path style="fill:#919196;" d="M208.914,175.762c0,5-4.054,9.054-9.054,9.054h-88.633c-5,0-9.054-4.054-9.054-9.054V107.03
		c0-5,4.054-9.054,9.054-9.054h88.633c5,0,9.054,4.054,9.054,9.054V175.762z"/>
</g>
<rect x="39.853" y="223.783" transform="matrix(-0.9634 -0.2682 0.2682 -0.9634 32.2173 568.5602)" style="fill:#414B82;" width="30.176" height="116.593"/>
<g>
	<path style="fill:#C8D2DC;" d="M58.098,383.151l-24.225-6.744l6.144-22.069c0.74-2.66-0.821-5.427-3.481-6.167
		c-1.739-0.485-3.13,0.082-3.804,0.464c-0.675,0.38-1.879,1.278-2.363,3.018l-6.144,22.069L0,366.976l6.144-22.069
		c4.459-16.017,21.117-25.422,37.136-20.962c16.017,4.46,25.42,21.12,20.961,37.136L58.098,383.151z"/>
	<circle style="fill:#C8D2DC;" cx="76.083" cy="216.673" r="29.24"/>
</g>
<rect x="198.25" y="266.991" transform="matrix(-0.2682 -0.9634 0.9634 -0.2682 53.6057 604.8778)" style="fill:#414B82;" width="116.593" height="30.176"/>
<g>
	<path style="fill:#C8D2DC;" d="M253.396,383.151l-6.144-22.069c-2.161-7.759-1.17-15.896,2.789-22.909
		c3.959-7.014,10.413-12.067,18.172-14.228c16.021-4.458,32.678,4.945,37.136,20.962l6.144,22.069l-24.225,6.744l-6.144-22.069
		c-0.484-1.739-1.688-2.637-2.363-3.018c-0.674-0.38-2.065-0.948-3.804-0.463c-2.66,0.74-4.222,3.507-3.48,6.167l6.144,22.07
		L253.396,383.151z"/>
	<circle style="fill:#C8D2DC;" cx="235.412" cy="216.673" r="29.24"/>
</g>
<circle style="fill:#64AFFF;" cx="155.415" cy="60.584" r="11.567"/>
<path style="fill:#91CDFF;" d="M202.129,286.348c0,3.638-2.949,6.587-6.587,6.587h-80.257c-3.638,0-6.587-2.949-6.587-6.587v-39.465
	c0-3.638,2.949-6.587,6.587-6.587h80.257c3.638,0,6.587,2.949,6.587,6.587V286.348z"/>
<g>
	<path style="fill:#FFFFFF;" d="M141.818,136.702l5.396-5.396c2.357-2.357,2.357-6.178,0-8.535c-2.358-2.357-6.179-2.357-8.535,0
		l-5.396,5.396l-5.396-5.396c-2.358-2.357-6.179-2.357-8.535,0c-2.357,2.357-2.357,6.178,0,8.535l5.396,5.396l-5.396,5.396
		c-2.357,2.357-2.357,6.178,0,8.535c1.179,1.179,2.723,1.767,4.268,1.767c1.544,0,3.089-0.588,4.268-1.767l5.396-5.396l5.396,5.396
		c1.179,1.179,2.723,1.767,4.268,1.767c1.545,0,3.089-0.588,4.268-1.767c2.357-2.357,2.357-6.178,0-8.535L141.818,136.702z"/>
	<path style="fill:#FFFFFF;" d="M186.076,136.702l5.396-5.396c2.357-2.357,2.357-6.178,0-8.535c-2.357-2.357-6.178-2.357-8.535,0
		l-5.396,5.396l-5.396-5.396c-2.358-2.357-6.179-2.357-8.535,0c-2.357,2.357-2.357,6.178,0,8.535l5.396,5.396l-5.396,5.396
		c-2.357,2.357-2.357,6.178,0,8.535c1.179,1.179,2.723,1.767,4.268,1.767c1.544,0,3.089-0.588,4.268-1.767l5.396-5.396l5.396,5.396
		c1.179,1.179,2.723,1.767,4.268,1.767s3.089-0.588,4.268-1.767c2.357-2.357,2.357-6.178,0-8.535L186.076,136.702z"/>
</g>
<path style="fill:#91CDFF;" d="M97.913,87.865L72.57,50.185c1.124-0.889,2.215-1.857,3.263-2.906
	c11.301-11.301,13.398-27.526,4.683-36.241C74.75,5.271,65.694,4.243,56.952,7.479c-0.583-1.093-1.305-2.111-2.203-3.01
	c-5.85-5.85-16.383-4.945-24.393,1.766c-5.527-3.46-13.525-2.242-19.057,3.29C5.794,15.03,4.557,22.978,7.952,28.502
	c-7.897,8.145-9.309,19.644-3.095,25.86c0.898,0.898,1.916,1.619,3.01,2.203c-3.237,8.742-2.209,17.798,3.559,23.564
	c8.715,8.715,24.94,6.618,36.241-4.683c1.522-1.522,2.871-3.135,4.056-4.806l37.915,25.502L97.913,87.865z"/>
<g>
</g>
<g>
</g>
<g>
</g>
<g>
</g>
<g>
</g>
<g>
</g>
<g>
</g>
<g>
</g>
<g>
</g>
<g>
</g>
<g>
</g>
<g>
</g>
<g>
</g>
<g>
</g>
<g>
</g>
</svg>
