<?xml version="1.0" standalone="no"?>
<!DOCTYPE svg PUBLIC "-//W3C//DTD SVG 20010904//EN"
 "http://www.w3.org/TR/2001/REC-SVG-20010904/DTD/svg10.dtd">
<svg version="1.0" xmlns="http://www.w3.org/2000/svg"
 width="450.000000pt" height="145.000000pt" viewBox="0 0 800.000000 155.000000"
 preserveAspectRatio="xMidYMid meet">
<metadata>
Created by potrace 1.16, written by Peter Selinger 2001-2019
</metadata>
<g transform="translate(0.000000,505.000000) scale(0.100000,-0.100000)"
fill="#0464e0" stroke="none"><!--#1a4e9c-->
<path d="M3684 4843 c-169 -291 -312 -535 -317 -543 -6 -11 13 -53 72 -153 45
-76 81 -141 81 -145 0 -15 -75 -192 -82 -192 -14 0 -200 321 -194 336 3 8 66
115 141 238 74 123 135 226 135 230 0 3 -105 6 -234 6 l-235 0 -68 -112 -68
-113 -3 113 -3 112 -212 -2 -212 -3 -5 -427 -5 -428 -55 45 c-30 24 -73 69
-95 99 l-39 56 -449 0 -448 0 18 -23 c10 -13 67 -80 127 -150 l109 -127 633 0
633 0 3 108 3 107 65 -107 65 -108 336 0 c257 0 339 -3 347 -12 6 -7 65 -107
132 -223 67 -115 125 -213 128 -217 4 -4 67 96 141 222 l134 230 350 2 350 3
51 90 51 90 3 -93 3 -92 642 1 642 0 128 150 128 149 -454 0 -454 0 -11 -25
c-23 -49 -154 -175 -184 -175 -4 0 -8 194 -8 430 l0 430 -224 0 -225 0 -19
-27 c-10 -16 -36 -59 -58 -98 l-39 -70 -3 98 -3 97 -212 -2 -212 -3 -5 -53 -5
-52 -251 430 -252 430 -308 -527z m571 -61 c139 -237 258 -441 266 -452 12
-19 14 -5 11 114 l-3 136 185 0 186 0 0 -142 0 -143 81 143 80 142 205 0 204
0 -2 -447 -3 -448 -180 0 -180 0 -5 137 -5 138 -74 -130 c-40 -72 -78 -133
-84 -137 -5 -3 -174 -7 -375 -8 l-365 -1 -96 -164 c-53 -90 -100 -165 -106
-167 -5 -1 -53 72 -107 164 l-96 166 -361 2 c-199 1 -363 4 -365 6 -2 2 -45
71 -95 153 l-90 149 -3 -154 -3 -154 -175 0 -175 0 -3 448 -2 447 180 0 179 0
3 -149 3 -150 90 150 90 149 202 0 202 0 -135 -223 -135 -223 122 -203 c93
-153 125 -198 130 -184 4 10 34 82 67 161 l60 143 -64 111 c-36 61 -66 114
-67 118 -3 14 537 939 547 937 5 -2 123 -197 261 -435z"/>
<path d="M3972 5098 c-80 -132 -472 -808 -472 -814 0 -4 23 -47 52 -97 l51
-90 22 49 c11 27 57 136 101 241 l79 193 190 0 190 0 19 -48 c11 -26 56 -134
101 -241 l82 -193 52 89 c28 50 51 93 51 96 0 7 -479 830 -489 840 -5 5 -17
-6 -29 -25z"/>
<path fill="#a31417" d="M2590 4130 l0 -380 110 0 110 0 0 380 0 380 -110 0 -110 0 0 -380z"/> <!--#e21e23-->
<path fill="#a31417" d="M2995 4328 c-60 -100 -111 -185 -113 -190 -4 -8 200 -350 223 -376 8
-9 43 -12 128 -10 l116 3 -115 189 -114 189 96 161 c54 89 106 173 116 189
l19 27 -123 0 -123 0 -110 -182z"/>
<path fill="#a31417" d="M3846 4501 c-5 -8 -285 -674 -307 -728 l-9 -23 119 0 119 0 33 95 33
95 162 0 162 0 32 -95 32 -95 120 0 c66 0 118 4 116 9 -1 4 -73 175 -158 380
l-155 371 -147 0 c-81 0 -149 -4 -152 -9z m207 -269 c26 -74 47 -136 47 -138
0 -2 -48 -4 -106 -4 -81 0 -105 3 -101 13 2 6 26 72 53 144 27 73 51 129 55
125 3 -4 27 -67 52 -140z"/>
<path fill="#a31417" d="M4608 4130 l2 -381 147 3 146 3 131 232 131 233 3 -235 2 -235 115 0
115 0 0 380 0 380 -149 0 -148 0 -129 -230 c-71 -126 -132 -230 -136 -230 -5
0 -8 104 -8 230 l0 230 -112 0 -113 0 3 -380z"/>
<path d="M4471 4155 l-62 -105 57 -138 c31 -75 60 -140 63 -144 3 -4 6 105 6
243 0 137 -1 249 -1 249 -1 0 -29 -47 -63 -105z"/>
<path d="M3856 3796 c-14 -41 -26 -77 -26 -80 0 -5 158 -277 165 -284 4 -4
165 275 165 287 0 5 -12 42 -26 80 l-26 71 -113 0 -112 0 -27 -74z"/>
<path d="M156 4668 c5 -7 53 -73 107 -145 l99 -133 952 0 951 1 35 61 c47 81
127 160 202 198 l61 30 -1207 0 c-963 0 -1206 -3 -1200 -12z"/>
<path d="M5497 4645 c80 -40 155 -113 203 -198 l32 -57 952 0 952 0 79 107
c44 58 93 124 108 145 l29 38 -1212 0 -1213 0 70 -35z"/>
<path d="M426 4308 c4 -7 54 -75 111 -150 l104 -138 810 0 811 0 -6 23 c-19
63 -28 167 -19 220 l10 57 -914 0 c-729 0 -913 -3 -907 -12z"/>
<path d="M5758 4221 c3 -69 0 -114 -11 -150 l-15 -51 813 0 813 0 87 118 c49
64 99 132 113 150 l24 32 -914 0 -914 0 4 -99z"/>
<path d="M2030 3590 c0 -3 44 -49 98 -103 l97 -97 613 0 613 0 110 98 110 97
-293 2 c-708 6 -1348 8 -1348 3z"/>
<path d="M4321 3590 c0 -3 50 -49 111 -102 l110 -98 617 0 617 0 49 53 c28 28
70 73 95 99 l44 48 -822 2 c-452 2 -822 1 -821 -2z"/>
</g>
</svg>
